<?xml version="1.0" encoding="UTF-8"?>
<svg width="24px" height="16px" viewBox="0 0 24 16" version="1.1" xmlns="http://www.w3.org/2000/svg" xmlns:xlink="http://www.w3.org/1999/xlink">
    <!-- Generator: Sketch 49.3 (51167) - http://www.bohemiancoding.com/sketch -->
    <title>Combined Shape</title>
    <desc>Created with Sketch.</desc>
    <defs></defs>
    <g id="Phone" stroke="none" stroke-width="1" fill="none" fill-rule="evenodd">
        <g id="文章详情页" transform="translate(-42.000000, -541.000000)" fill="#A8A8A8">
            <g id="双引号" transform="translate(42.000000, 537.000000)">
                <path d="M14.4063535,12.6625778 L14.392021,12.6401712 L19.1438545,4.42849485 C19.3810213,4.01864524 19.9053827,3.87842053 20.3154664,4.11518243 C20.7267002,4.35260839 20.8701542,4.87683829 20.6371078,5.29056971 L17.7989651,10.3291738 C18.1404704,10.2612985 18.4944214,10.2256146 18.8571429,10.2256146 C21.6974644,10.2256146 24,12.4136853 24,15.1128073 C24,17.8119293 21.6974644,20 18.8571429,20 C16.0168213,20 13.7142857,17.8119293 13.7142857,15.1128073 C13.7142857,14.2198972 13.9662719,13.3829158 14.4063535,12.6625778 Z M0.613450317,12.7960346 L0.593381055,12.7690057 L5.42895375,4.42814935 C5.66650718,4.01839456 6.19098361,3.87836576 6.60116401,4.11518353 C7.01239783,4.35260948 7.15585185,4.87683938 6.9228054,5.29057081 L4.08466135,10.3291774 C4.42617217,10.2612998 4.78012929,10.2256146 5.14285714,10.2256146 C7.98317871,10.2256146 10.2857143,12.4136853 10.2857143,15.1128073 C10.2857143,17.8119293 7.98317871,20 5.14285714,20 C2.30253557,20 0,17.8119293 0,15.1128073 C0,14.2745052 0.222107093,13.4855001 0.613450317,12.7960346 Z" id="Combined-Shape"></path>
            </g>
        </g>
    </g>
</svg>